<svg width="82" height="36" viewBox="0 0 82 36" fill="none" xmlns="http://www.w3.org/2000/svg">
<rect x="0.777832" width="81.1111" height="35.5556" rx="4.44444" fill="#F5F5F5"/>
<path d="M14.5899 21.7778L12.011 12.9778H13.7588L15.4088 19.0278L17.0588 12.99L18.8066 12.9778L20.4566 19.0278L22.1066 12.9778H23.8544L21.2755 21.7778H19.6377L17.9327 15.8378L16.2277 21.7778H14.5899ZM24.8353 21.7778V12.9778H30.5797V14.53H26.4975V16.4122H29.8464V17.9644H26.4975V20.2255H30.5797V21.7778H24.8353ZM31.4334 21.7778L34.1223 12.9778H36.6034L39.2923 21.7778H37.5811L35.1856 14.0167H35.5034L33.1445 21.7778H31.4334ZM33.0467 19.9444V18.3922H37.6911V19.9444H33.0467ZM41.7006 21.7778V14.53H38.9262V12.9778H46.1373V14.53H43.3628V21.7778H41.7006ZM47.1194 21.7778V12.9778H48.7816V16.5955H52.7171V12.9778H54.3794V21.7778H52.7171V18.1478H48.7816V21.7778H47.1194ZM56.095 21.7778V12.9778H61.8395V14.53H57.7573V16.4122H61.1062V17.9644H57.7573V20.2255H61.8395V21.7778H56.095ZM63.3042 21.7778V12.9778H67.0198C67.1054 12.9778 67.2194 12.9818 67.362 12.99C67.5087 12.9941 67.6391 13.0063 67.7531 13.0267C68.2787 13.1081 68.7085 13.2813 69.0426 13.5461C69.3807 13.8109 69.6292 14.145 69.7881 14.5483C69.947 14.9476 70.0265 15.3937 70.0265 15.8867C70.0265 16.6241 69.8431 17.2555 69.4765 17.7811C69.1098 18.3026 68.5354 18.6244 67.7531 18.7467L67.0198 18.7955H64.9665V21.7778H63.3042ZM68.2665 21.7778L66.5309 18.1967L68.242 17.8667L70.1487 21.7778H68.2665ZM64.9665 17.2433H66.9465C67.032 17.2433 67.1257 17.2393 67.2276 17.2311C67.3294 17.223 67.4231 17.2067 67.5087 17.1822C67.7328 17.1211 67.9059 17.0193 68.0281 16.8767C68.1504 16.73 68.2339 16.5691 68.2787 16.3939C68.3276 16.2146 68.352 16.0455 68.352 15.8867C68.352 15.7278 68.3276 15.5607 68.2787 15.3855C68.2339 15.2063 68.1504 15.0454 68.0281 14.9028C67.9059 14.7561 67.7328 14.6522 67.5087 14.5911C67.4231 14.5667 67.3294 14.5504 67.2276 14.5422C67.1257 14.5341 67.032 14.53 66.9465 14.53H64.9665V17.2433Z" fill="#033159"/>
</svg>
